<?xml version="1.0" standalone="no"?>
<!DOCTYPE svg PUBLIC "-//W3C//DTD SVG 20010904//EN"
 "http://www.w3.org/TR/2001/REC-SVG-20010904/DTD/svg10.dtd">
<svg version="1.0" xmlns="http://www.w3.org/2000/svg"
 width="319.000000pt" height="319.000000pt" viewBox="0 0 319.000000 319.000000"
 preserveAspectRatio="xMidYMid meet">
<metadata>
Created by potrace 1.11, written by Peter Selinger 2001-2013
</metadata>
<g transform="translate(0.000000,319.000000) scale(0.100000,-0.100000)"
fill="#000000" stroke="none">
<path d="M1365 3175 c-228 -37 -453 -120 -625 -231 -193 -124 -395 -329 -507
-514 -34 -57 -113 -211 -113 -222 0 -6 -6 -24 -14 -41 -24 -55 -55 -158 -77
-262 -27 -125 -34 -405 -14 -536 94 -618 521 -1120 1104 -1299 174 -53 250
-64 451 -64 248 -1 339 11 516 69 596 195 1011 696 1094 1322 17 128 8 390
-18 513 -57 266 -176 514 -341 710 -247 293 -604 494 -986 555 -82 13 -389 13
-470 0z"/>
</g>
</svg>
